<svg width="300" height="300" viewBox="0 0 300 300" fill="none" xmlns="http://www.w3.org/2000/svg">
<path d="M146.995 287.775C221.57 287.775 282.025 252.872 282.025 209.817C282.025 166.762 221.57 131.859 146.995 131.859C72.4198 131.859 11.9648 166.762 11.9648 209.817C11.9648 252.872 72.4198 287.775 146.995 287.775Z" fill="#F5F5F5"/>
<path d="M170.105 252.684C183.817 252.684 194.933 246.266 194.933 238.35C194.933 230.433 183.817 224.016 170.105 224.016C156.393 224.016 145.277 230.433 145.277 238.35C145.277 246.266 156.393 252.684 170.105 252.684Z" fill="#E0E0E0"/>
<path d="M234.695 244.191C248.407 244.191 259.523 237.774 259.523 229.857C259.523 221.941 248.407 215.523 234.695 215.523C220.983 215.523 209.867 221.941 209.867 229.857C209.867 237.774 220.983 244.191 234.695 244.191Z" fill="#E0E0E0"/>
<path d="M98.8905 274.176C112.603 274.176 123.718 267.758 123.718 259.842C123.718 251.925 112.603 245.508 98.8905 245.508C85.1784 245.508 74.0625 251.925 74.0625 259.842C74.0625 267.758 85.1784 274.176 98.8905 274.176Z" fill="#E0E0E0"/>
<path d="M58.2018 212.703C58.2018 212.703 57.5538 197.547 51.1998 189.111C44.8458 180.675 37.0578 179.463 33.1998 181.839C30.3798 183.567 30.7578 188.703 35.6358 192.039C40.5138 195.375 49.9158 203.925 51.3858 209.499L58.2018 212.703Z" fill="#37474F"/>
<path d="M54.002 210.493C53.899 210.485 53.8032 210.437 53.7348 210.36C53.6665 210.283 53.631 210.182 53.636 210.079C54.29 196.327 42.236 187.753 38.954 186.211C38.8598 186.166 38.7868 186.087 38.7509 185.989C38.715 185.891 38.7189 185.783 38.762 185.689C38.8075 185.594 38.8882 185.521 38.9869 185.485C39.0855 185.449 39.1943 185.453 39.29 185.497C42.656 187.093 55.094 195.931 54.422 210.097C54.4158 210.201 54.3688 210.298 54.2913 210.368C54.2139 210.437 54.112 210.474 54.008 210.469L54.002 210.493Z" fill="white"/>
<path d="M55.2001 207.919C54.3339 207.907 53.5009 207.583 52.8541 207.007C52.1161 206.197 52.1761 204.955 51.8341 203.911C51.2761 202.195 49.5841 201.031 47.8201 200.665C46.0315 200.386 44.2033 200.508 42.4681 201.025C38.9281 201.895 35.5261 199.717 31.9801 199.975C30.7007 200.016 29.4564 200.403 28.3801 201.097C27.8493 201.448 27.4144 201.926 27.1148 202.487C26.8151 203.049 26.6603 203.676 26.6641 204.313C26.7858 205.366 27.3104 206.331 28.1281 207.007C28.9481 207.68 29.8516 208.245 30.8161 208.687L33.9301 210.277C34.4685 210.516 34.9648 210.84 35.4001 211.237C35.8115 211.677 36.1218 212.203 36.3094 212.776C36.497 213.349 36.5573 213.956 36.4861 214.555C36.2461 215.755 35.2861 216.667 34.9801 217.843C34.6021 219.385 35.5441 221.035 36.9001 221.869C38.3086 222.631 39.9163 222.945 41.5081 222.769C43.0981 222.679 44.6701 222.361 46.2601 222.331C47.3359 222.254 48.411 222.489 49.3561 223.009C50.4235 223.781 51.1925 224.898 51.5341 226.171C51.7402 226.987 52.0679 227.768 52.5061 228.487C53.0465 229.17 53.7741 229.68 54.6001 229.957C56.1977 230.545 57.9525 230.545 59.5501 229.957C60.8641 229.453 61.5061 227.971 61.9981 226.687C62.4898 225.342 62.7238 223.917 62.6881 222.487C62.6126 218.809 61.7813 215.186 60.2461 211.843C59.5081 210.307 58.4461 208.771 56.8141 208.243C56.2856 208.092 55.7459 207.983 55.2001 207.919Z" fill="#455A64"/>
<path d="M58.6094 224.401C58.5369 224.401 58.4661 224.379 58.4069 224.337C58.3477 224.295 58.3032 224.236 58.2794 224.167C54.5774 213.553 37.0634 204.319 30.6794 203.257C30.6341 203.25 30.5907 203.233 30.5517 203.209C30.5127 203.185 30.4789 203.153 30.4521 203.116C30.4254 203.079 30.4063 203.036 30.3958 202.992C30.3854 202.947 30.3839 202.9 30.3914 202.855C30.3989 202.81 30.4152 202.766 30.4395 202.728C30.4637 202.689 30.4954 202.655 30.5327 202.628C30.5701 202.601 30.6123 202.582 30.657 202.572C30.7018 202.561 30.7481 202.56 30.7934 202.567C37.3214 203.647 55.1834 213.085 58.9934 223.933C59.0095 223.977 59.0166 224.023 59.0144 224.07C59.0121 224.116 59.0006 224.162 58.9805 224.204C58.9604 224.246 58.932 224.283 58.8971 224.314C58.8622 224.345 58.8215 224.368 58.7774 224.383C58.7235 224.402 58.666 224.408 58.6094 224.401Z" fill="white"/>
<path d="M42.8622 218.585C42.7952 218.58 42.7312 218.555 42.678 218.514C42.6249 218.473 42.5847 218.417 42.5625 218.354C42.5403 218.29 42.5369 218.222 42.5529 218.156C42.5688 218.091 42.6033 218.032 42.6522 217.985C45.516 216.004 48.9026 214.917 52.3842 214.859C52.4694 214.871 52.5476 214.912 52.6043 214.977C52.661 215.041 52.6922 215.124 52.6922 215.21C52.6922 215.296 52.661 215.379 52.6043 215.444C52.5476 215.508 52.4694 215.55 52.3842 215.561C49.0539 215.642 45.818 216.684 43.0662 218.561C43.002 218.589 42.9311 218.597 42.8622 218.585Z" fill="white"/>
<path d="M58.7993 232.607C58.422 232.351 58.1103 232.009 57.8893 231.61C57.6684 231.211 57.5444 230.765 57.5273 230.309V105.275C57.5535 104.805 57.6898 104.348 57.9254 103.941C58.1609 103.533 58.4891 103.187 58.8833 102.929L205.979 17.9993C206.37 17.7533 206.821 17.6187 207.283 17.6098C207.744 17.601 208.2 17.7183 208.6 17.9492C209 18.1801 209.329 18.5157 209.553 18.92C209.776 19.3243 209.885 19.7818 209.867 20.2433V145.283C209.841 145.753 209.705 146.211 209.469 146.618C209.234 147.026 208.906 147.372 208.511 147.629L61.4153 232.559C61.0133 232.771 60.5673 232.886 60.113 232.894C59.6588 232.902 59.2089 232.804 58.7993 232.607Z" fill="#455A64"/>
<path d="M61.1573 232.677H61.1033C61.0623 232.701 61.0178 232.719 60.9713 232.731H60.8693C60.8091 232.752 60.7467 232.766 60.6833 232.773C60.6431 232.789 60.6006 232.799 60.5573 232.803L60.3533 232.833C59.818 232.905 59.2732 232.811 58.7933 232.563C58.4166 232.308 58.1055 231.967 57.8855 231.569C57.6654 231.17 57.5427 230.725 57.5273 230.271V121.305L60.0713 122.775V231.777C60.0713 232.377 60.3773 232.749 60.8213 232.749C60.881 232.758 60.9417 232.758 61.0013 232.749C61.0567 232.733 61.1093 232.709 61.1573 232.677Z" fill="#F6AF19"/>
<path opacity="0.81" d="M61.1573 232.677H61.1033C61.0623 232.701 61.0178 232.719 60.9713 232.731H60.8693C60.8091 232.752 60.7467 232.766 60.6833 232.773C60.6431 232.789 60.6006 232.799 60.5573 232.803L60.3533 232.833C59.818 232.905 59.2732 232.811 58.7933 232.563C58.4166 232.308 58.1055 231.967 57.8855 231.569C57.6654 231.17 57.5427 230.725 57.5273 230.271V121.305L60.0713 122.775V231.777C60.0713 232.377 60.3773 232.749 60.8213 232.749C60.881 232.758 60.9417 232.758 61.0013 232.749C61.0567 232.733 61.1093 232.709 61.1573 232.677Z" fill="#E0E0E0"/>
<path d="M60.0674 122.775L57.5234 121.305V145.515L60.0674 146.997V122.775Z" fill="#F6AF19"/>
<path opacity="0.15" d="M60.0674 122.775L57.5234 121.305V145.515L60.0674 146.997V122.775Z" fill="black"/>
<path d="M60.4558 105.407C60.2156 105.812 60.0815 106.27 60.0658 106.739V122.771L57.5218 121.302V105.276C57.5188 105.222 57.5188 105.167 57.5218 105.114C57.5334 105.001 57.5514 104.888 57.5758 104.778C57.6505 104.484 57.7635 104.202 57.9118 103.938L60.4558 105.407Z" fill="#263238"/>
<path d="M209.868 20.2467V27.4827L102.042 89.7327C101.298 90.1647 100.692 89.8107 100.692 88.9527V86.2107C100.692 85.3527 100.092 85.0107 99.3364 85.4307L66.4984 104.397C66.1042 104.654 65.776 105 65.5404 105.408C65.3049 105.815 65.1685 106.273 65.1424 106.743V109.479C65.117 109.948 64.9815 110.405 64.747 110.813C64.5125 111.22 64.1855 111.567 63.7924 111.825L60.0664 113.997V106.797C60.0919 106.327 60.2273 105.87 60.4618 105.463C60.6963 105.055 61.0233 104.709 61.4164 104.451L208.518 19.4667C209.262 19.0347 209.868 19.3827 209.868 20.2467Z" fill="#37474F"/>
<path d="M209.874 145.288C209.847 145.757 209.711 146.213 209.475 146.62C209.24 147.026 208.912 147.372 208.518 147.628L61.4164 232.558C60.6724 232.984 60.0664 232.636 60.0664 231.772V113.998L63.7924 111.85C64.5364 111.418 65.7484 104.854 66.4984 104.422L98.7844 85.7804C99.5344 85.3484 101.298 90.1964 102.042 89.7644L209.868 27.4844V145.288H209.874Z" fill="#F6AF19"/>
<path opacity="0.9" d="M209.874 145.288C209.847 145.757 209.711 146.213 209.475 146.62C209.24 147.026 208.912 147.372 208.518 147.628L61.4164 232.558C60.6724 232.984 60.0664 232.636 60.0664 231.772V113.998L63.7924 111.85C64.5364 111.418 65.7484 104.854 66.4984 104.422L98.7844 85.7804C99.5344 85.3484 101.298 90.1964 102.042 89.7644L209.868 27.4844V145.288H209.874Z" fill="white"/>
<g opacity="0.4">
<path d="M209.268 28.5224V145.288C209.239 145.649 209.129 145.997 208.946 146.309C208.763 146.621 208.513 146.887 208.212 147.088L61.1164 232.036C61.0256 232.098 60.9198 232.133 60.8104 232.138C60.6724 232.138 60.6664 231.838 60.6664 231.772V114.316L64.0924 112.336C64.6204 112.03 64.9564 110.98 65.7124 108.28C65.9869 107.117 66.3644 105.981 66.8404 104.884L98.8624 86.3984C99.2456 86.9208 99.5905 87.4702 99.8944 88.0424C100.764 89.5664 101.244 90.3584 101.94 90.3584C102.081 90.358 102.219 90.323 102.342 90.2564L209.268 28.5224ZM209.868 27.4844L102.042 89.7344C102.009 89.7428 101.974 89.7428 101.94 89.7344C101.184 89.7344 99.6484 85.6964 98.8864 85.6964C98.853 85.6877 98.8179 85.6877 98.7844 85.6964L66.4984 104.398C65.7484 104.83 64.5364 111.394 63.7924 111.826L60.0664 113.998V231.772C60.0664 232.372 60.3724 232.738 60.8104 232.738C61.0223 232.73 61.2286 232.668 61.4104 232.558L208.518 147.628C208.912 147.372 209.24 147.026 209.475 146.62C209.711 146.213 209.847 145.757 209.874 145.288V27.4844H209.868Z" fill="#F6AF19"/>
</g>
<path d="M60.0664 122.773V146.995L209.868 60.5171V36.2891L60.0664 122.773Z" fill="#F6AF19"/>
<path d="M209.868 27.4844V36.2864L60.0664 122.77V113.998L62.8444 112.39C63.5884 111.958 63.8404 111.298 64.1944 110.044L65.1424 106.768C65.4364 105.628 65.7424 104.854 66.4984 104.422L98.7844 85.7804C99.5344 85.3484 100.122 85.3004 100.692 86.2424L101.85 88.3424C102.27 89.0804 102.486 89.5124 103.23 89.0804L209.868 27.4844Z" fill="#F0F0F0"/>
<path d="M203.518 24.7858C204.46 24.2458 205.222 24.6838 205.222 25.7698C205.19 26.3611 205.019 26.9366 204.723 27.4495C204.427 27.9624 204.014 28.3983 203.518 28.7218C202.582 29.2618 201.82 28.8238 201.82 27.7378C201.853 27.1472 202.023 26.5724 202.318 26.0597C202.613 25.547 203.024 25.1107 203.518 24.7858Z" fill="#F6AF19"/>
<path d="M197.399 28.317C198.335 27.777 199.097 28.215 199.097 29.301C199.065 29.8916 198.894 30.4664 198.6 30.9791C198.305 31.4918 197.894 31.9281 197.399 32.253C196.457 32.793 195.695 32.355 195.695 31.269C195.727 30.6777 195.898 30.1022 196.194 29.5893C196.491 29.0765 196.903 28.6406 197.399 28.317Z" fill="#F6AF19"/>
<path d="M191.263 31.8561C192.199 31.3161 192.967 31.7541 192.967 32.8401C192.933 33.4311 192.762 34.006 192.466 34.5187C192.17 35.0314 191.758 35.4675 191.263 35.7921C190.321 36.3381 189.559 35.8941 189.559 34.8081C189.591 34.2168 189.762 33.6413 190.058 33.1284C190.354 32.6155 190.767 32.1796 191.263 31.8561Z" fill="#F6AF19"/>
<path opacity="0.5" d="M66.2712 114.603L64.1473 115.803L64.9573 114.249C64.9893 114.19 65.0061 114.124 65.0061 114.057C65.0061 113.99 64.9893 113.924 64.9573 113.865C64.8973 113.793 64.7893 113.865 64.7173 113.979L63.5653 116.199C63.5627 116.227 63.5627 116.255 63.5653 116.283C63.5626 116.321 63.5626 116.359 63.5653 116.397C63.5616 116.431 63.5616 116.465 63.5653 116.499C63.5623 116.515 63.5623 116.531 63.5653 116.547L64.7173 117.435C64.7344 117.445 64.7541 117.451 64.7743 117.451C64.7944 117.451 64.8141 117.445 64.8313 117.435C64.8863 117.39 64.9295 117.332 64.9573 117.267C65.0173 117.123 65.0113 116.961 64.9573 116.907L64.1473 116.307L66.2712 115.107C66.3269 115.064 66.3716 115.008 66.4018 114.944C66.432 114.881 66.4469 114.811 66.4452 114.741C66.4452 114.603 66.3672 114.555 66.2712 114.603Z" fill="#455A64"/>
<path opacity="0.5" d="M68.0475 113.58L70.1715 112.38L69.3615 111.78C69.2895 111.726 69.2835 111.564 69.3615 111.42C69.4395 111.276 69.5295 111.198 69.6015 111.252L70.7535 112.14C70.7686 112.151 70.781 112.165 70.7895 112.182C70.7958 112.213 70.7958 112.246 70.7895 112.278C70.7958 112.315 70.7958 112.354 70.7895 112.392C70.7895 112.392 70.7895 112.392 70.7895 112.422C70.7801 112.451 70.7681 112.479 70.7535 112.506L69.6015 114.702C69.5766 114.755 69.5371 114.801 69.4875 114.834C69.4707 114.85 69.4481 114.859 69.4245 114.859C69.401 114.859 69.3784 114.85 69.3615 114.834C69.3278 114.775 69.3101 114.709 69.3101 114.642C69.3101 114.574 69.3278 114.508 69.3615 114.45L70.1715 112.89L68.0475 114.12C67.9515 114.174 67.8795 114.12 67.8795 113.952C67.8757 113.881 67.889 113.81 67.9183 113.745C67.9475 113.68 67.9918 113.624 68.0475 113.58Z" fill="#455A64"/>
<path opacity="0.5" d="M75.0004 107.46C75.0004 107.334 74.8744 107.352 74.8204 107.49L74.5264 108.204C74.0284 108.15 73.4284 108.63 73.0204 109.494C72.4984 110.604 72.4984 111.894 73.0204 112.428C73.1486 112.548 73.3145 112.619 73.4896 112.63C73.6648 112.641 73.8383 112.591 73.9804 112.488C74.4047 112.203 74.7363 111.801 74.9344 111.33C74.9677 111.273 74.9852 111.209 74.9852 111.144C74.9852 111.078 74.9677 111.014 74.9344 110.958C74.8624 110.892 74.7544 110.958 74.6884 111.096C74.2984 111.924 73.6564 112.296 73.2664 111.918C72.8764 111.54 72.8704 110.556 73.2664 109.722C73.5424 109.122 73.9444 108.78 74.2984 108.762L74.0764 109.296C74.0224 109.434 74.0764 109.566 74.1604 109.506L75.0304 108.942C75.0636 108.912 75.0896 108.875 75.1062 108.833C75.1228 108.791 75.1297 108.746 75.1264 108.702L75.0004 107.46Z" fill="#455A64"/>
<path opacity="0.5" d="M97.853 89.7724L98.627 88.1284C98.6724 88.0511 98.6963 87.9631 98.6963 87.8734C98.6963 87.7838 98.6724 87.6958 98.627 87.6184C98.537 87.5344 98.387 87.6184 98.297 87.8104L97.523 89.4484L96.743 88.7044C96.653 88.6144 96.503 88.7044 96.413 88.8964C96.3677 88.9738 96.3438 89.0618 96.3438 89.1514C96.3438 89.2411 96.3677 89.3291 96.413 89.4064L97.187 90.1504L96.413 91.8004C96.3677 91.8778 96.3438 91.9658 96.3438 92.0554C96.3438 92.1451 96.3677 92.2331 96.413 92.3104C96.4367 92.33 96.4664 92.3406 96.497 92.3406C96.5277 92.3406 96.5574 92.33 96.581 92.3104C96.6554 92.2642 96.7124 92.1946 96.743 92.1124L97.523 90.4684L98.297 91.2184C98.3197 91.2375 98.3484 91.2479 98.378 91.2479C98.4076 91.2479 98.4363 91.2375 98.459 91.2184C98.5337 91.1709 98.5923 91.1019 98.627 91.0204C98.6724 90.9431 98.6963 90.8551 98.6963 90.7654C98.6963 90.6758 98.6724 90.5878 98.627 90.5104L97.853 89.7724Z" fill="#455A64"/>
<path d="M77.8359 109.477V106.741C77.8636 106.272 78.0014 105.815 78.2379 105.409C78.4745 105.002 78.8034 104.657 79.1979 104.401L200.908 34.2011C201.658 33.7691 202.264 34.1171 202.264 34.9811V37.6811C202.238 38.1511 202.101 38.6084 201.866 39.0159C201.63 39.4235 201.302 39.7699 200.908 40.0271L79.1979 110.263C78.4419 110.695 77.8359 110.341 77.8359 109.477Z" fill="white"/>
<path d="M199.054 40.2017C199.023 40.208 198.99 40.208 198.958 40.2017C198.895 40.1699 198.844 40.1178 198.813 40.0536C198.783 39.9895 198.775 39.917 198.79 39.8477L198.922 38.7137L198.37 38.3177C198.331 38.2889 198.299 38.2508 198.279 38.2068C198.258 38.1628 198.248 38.1143 198.25 38.0657C198.251 37.9831 198.269 37.9016 198.304 37.827C198.34 37.7523 198.391 37.6863 198.454 37.6337L199.246 37.0337C199.273 37.0097 199.292 36.9784 199.3 36.9437L199.654 35.7797C199.674 35.6948 199.719 35.6174 199.781 35.5568C199.844 35.4962 199.923 35.4548 200.008 35.4377C200.062 35.4358 200.115 35.4496 200.161 35.4773C200.206 35.505 200.243 35.5454 200.266 35.5937L200.584 36.2777L201.304 36.0017C201.355 35.98 201.411 35.9747 201.465 35.9865C201.519 35.9984 201.567 36.0267 201.604 36.0677C201.652 36.1399 201.677 36.2243 201.677 36.3107C201.677 36.397 201.652 36.4814 201.604 36.5537L201.004 37.6337C200.998 37.6653 200.998 37.698 201.004 37.7297L201.142 38.7077C201.151 38.7877 201.141 38.8685 201.114 38.9443C201.087 39.0201 201.043 39.0889 200.986 39.1457C200.954 39.1837 200.914 39.2135 200.868 39.2323C200.822 39.2511 200.772 39.2584 200.722 39.2537L200.008 39.1637L199.318 40.0877C199.285 40.1244 199.244 40.1535 199.199 40.1732C199.153 40.1929 199.104 40.2026 199.054 40.2017ZM198.598 37.9997L199.15 38.3957C199.197 38.4344 199.232 38.485 199.252 38.542C199.272 38.599 199.276 38.6604 199.264 38.7197L199.198 39.6557L199.798 38.8997C199.833 38.8509 199.879 38.8116 199.932 38.7854C199.986 38.7592 200.045 38.7469 200.104 38.7497L200.818 38.8397C200.818 38.8397 200.848 38.7437 200.818 38.6957L200.68 37.7177C200.671 37.6094 200.694 37.5008 200.746 37.4057L201.346 36.3257L200.686 36.5777C200.655 36.5914 200.621 36.5988 200.587 36.5993C200.552 36.5998 200.518 36.5934 200.486 36.5806C200.454 36.5677 200.426 36.5486 200.401 36.5244C200.377 36.5002 200.357 36.4714 200.344 36.4397L200.05 35.8397L199.696 37.0037C199.667 37.1107 199.604 37.2054 199.516 37.2737L198.724 37.8737C198.668 37.8989 198.624 37.9437 198.598 37.9997Z" fill="#E0E0E0"/>
<g opacity="0.5">
<path d="M203.852 33.8237C203.748 33.8248 203.646 33.7913 203.564 33.7284C203.481 33.6655 203.422 33.5769 203.395 33.4766C203.368 33.3762 203.375 33.2697 203.416 33.174C203.456 33.0782 203.527 32.9986 203.618 32.9477L207.422 30.7517C207.475 30.7206 207.534 30.7003 207.595 30.6919C207.656 30.6835 207.718 30.6872 207.777 30.7028C207.837 30.7184 207.893 30.7456 207.942 30.7828C207.991 30.82 208.033 30.8666 208.064 30.9197C208.095 30.9729 208.115 31.0317 208.124 31.0928C208.132 31.1538 208.128 31.2159 208.113 31.2755C208.097 31.3352 208.07 31.3911 208.033 31.4402C207.995 31.4893 207.949 31.5306 207.896 31.5617L204.086 33.7637C204.014 33.8039 203.934 33.8246 203.852 33.8237Z" fill="#455A64"/>
<path d="M203.85 36.0275C203.768 36.0274 203.687 36.0058 203.615 35.9647C203.543 35.9237 203.484 35.8647 203.442 35.7935C203.411 35.74 203.391 35.6809 203.383 35.6196C203.375 35.5583 203.379 35.496 203.395 35.4363C203.411 35.3766 203.439 35.3207 203.477 35.2718C203.515 35.2229 203.562 35.1821 203.616 35.1515L207.42 32.9495C207.527 32.9003 207.649 32.8928 207.761 32.9284C207.874 32.964 207.969 33.0402 208.028 33.1422C208.087 33.2441 208.106 33.3644 208.081 33.4797C208.057 33.595 207.99 33.6969 207.894 33.7655L204.084 35.9615C204.013 36.0035 203.933 36.0263 203.85 36.0275Z" fill="#455A64"/>
<path d="M203.854 38.2222C203.771 38.2221 203.69 38.2004 203.619 38.1594C203.547 38.1183 203.487 38.0593 203.446 37.9882C203.415 37.9351 203.395 37.8765 203.387 37.8156C203.379 37.7547 203.383 37.6929 203.399 37.6337C203.415 37.5745 203.443 37.5191 203.481 37.4707C203.519 37.4224 203.566 37.3821 203.62 37.3522L207.424 35.1502C207.477 35.1191 207.536 35.0987 207.597 35.0903C207.658 35.0819 207.72 35.0856 207.779 35.1012C207.839 35.1168 207.895 35.144 207.944 35.1812C207.993 35.2185 208.035 35.265 208.066 35.3182C208.097 35.3714 208.117 35.4302 208.125 35.4912C208.134 35.5523 208.13 35.6144 208.115 35.674C208.099 35.7336 208.072 35.7896 208.035 35.8387C207.997 35.8878 207.951 35.9291 207.898 35.9602L204.088 38.1622C204.016 38.2023 203.936 38.223 203.854 38.2222Z" fill="#455A64"/>
</g>
<path d="M60.0674 113.972V122.774L57.5234 121.304V112.508L60.0674 113.972Z" fill="#E0E0E0"/>
<path d="M129.637 106.034C129.54 106.091 129.449 106.102 129.364 106.067C129.291 106.025 129.255 105.941 129.255 105.815C129.255 105.758 129.267 105.688 129.291 105.604L133.678 89.441C133.714 89.2791 133.781 89.1206 133.878 88.9655C133.987 88.7892 134.133 88.6479 134.315 88.5415L136.298 87.3817C136.48 87.2753 136.62 87.2499 136.717 87.3056C136.814 87.3473 136.887 87.4242 136.935 87.5363L141.322 98.5703C141.334 98.6335 141.34 98.6932 141.34 98.7494C141.34 98.8759 141.304 99.0026 141.231 99.1295C141.158 99.2564 141.073 99.3482 140.976 99.4049L139.392 100.331C139.223 100.43 139.095 100.462 139.01 100.428C138.937 100.372 138.889 100.309 138.865 100.239L138.009 98.1667L132.604 101.327L131.748 104.399C131.724 104.498 131.669 104.621 131.584 104.769C131.512 104.896 131.39 105.009 131.22 105.108L129.637 106.034ZM133.241 98.5299L137.372 96.1146L135.297 90.8131L133.241 98.5299ZM148.062 95.4729C147.359 95.8843 146.77 96.0878 146.297 96.0833C145.836 96.0718 145.454 95.9368 145.15 95.6784V96.4585C145.15 96.599 145.108 96.7433 145.023 96.8914C144.95 97.0323 144.847 97.1418 144.714 97.2198L143.276 98.0604C143.154 98.1314 143.051 98.1425 142.966 98.0937C142.881 98.045 142.839 97.9504 142.839 97.8098V83.8532C142.839 83.7126 142.881 83.5683 142.966 83.4203C143.051 83.2722 143.154 83.1627 143.276 83.0918L144.823 82.1874C144.956 82.1094 145.059 82.0982 145.132 82.1541C145.217 82.2028 145.26 82.2974 145.26 82.438V87.1183C145.563 86.5334 145.939 85.9832 146.388 85.4677C146.849 84.9311 147.407 84.4713 148.062 84.0883C148.706 83.7123 149.264 83.5125 149.737 83.4888C150.21 83.4652 150.604 83.5931 150.92 83.8724C151.248 84.1307 151.496 84.5123 151.666 85.0174C151.836 85.5224 151.927 86.1228 151.939 86.8185C151.951 87.0644 151.957 87.2927 151.957 87.5035C151.957 87.7003 151.951 87.9287 151.939 88.1888C151.915 88.9339 151.818 89.6653 151.648 90.383C151.478 91.0867 151.235 91.7556 150.92 92.3898C150.604 93.024 150.21 93.6059 149.737 94.1355C149.264 94.6511 148.706 95.0969 148.062 95.4729ZM147.389 93.6107C147.911 93.3057 148.317 92.9416 148.608 92.5183C148.9 92.081 149.106 91.6161 149.227 91.1235C149.361 90.6238 149.44 90.1139 149.464 89.5937C149.488 89.1579 149.488 88.7362 149.464 88.3288C149.44 87.837 149.361 87.4193 149.227 87.0757C149.106 86.7249 148.9 86.5082 148.608 86.4255C148.317 86.3287 147.911 86.4328 147.389 86.7378C146.904 87.0215 146.509 87.3786 146.206 87.8089C145.903 88.2392 145.672 88.6973 145.514 89.183C145.357 89.6547 145.272 90.105 145.26 90.5337C145.247 90.7938 145.241 91.0714 145.241 91.3666C145.241 91.6477 145.247 91.9112 145.26 92.1571C145.284 92.5786 145.363 92.9611 145.496 93.3048C145.642 93.6272 145.866 93.8333 146.17 93.923C146.485 94.0057 146.892 93.9015 147.389 93.6107ZM158.169 89.5645C157.198 90.132 156.379 90.414 155.712 90.4106C155.057 90.4001 154.553 90.1393 154.201 89.6282C153.861 89.1101 153.667 88.3873 153.619 87.4599C153.607 87.214 153.601 86.9084 153.601 86.5429C153.601 86.1775 153.607 85.8647 153.619 85.6046C153.667 84.6065 153.867 83.6532 154.219 82.7447C154.583 81.8151 155.093 80.962 155.748 80.1854C156.416 79.4017 157.222 78.7332 158.169 78.1799C159.115 77.6266 159.916 77.3552 160.571 77.3657C161.239 77.3691 161.748 77.6263 162.1 78.1374C162.464 78.6274 162.67 79.3431 162.719 80.2845C162.731 80.5304 162.737 80.8361 162.737 81.2015C162.737 81.5669 162.731 81.8797 162.719 82.1398C162.67 83.1239 162.47 84.0772 162.118 84.9997C161.779 85.9151 161.275 86.7647 160.608 87.5484C159.953 88.325 159.14 88.997 158.169 89.5645ZM158.169 87.4773C158.812 87.1014 159.309 86.5786 159.661 85.9091C160.013 85.2255 160.207 84.4163 160.244 83.4814C160.256 83.2635 160.262 82.9859 160.262 82.6486C160.262 82.3112 160.256 82.0407 160.244 81.837C160.207 80.9587 160.013 80.3835 159.661 80.1114C159.309 79.8392 158.812 79.8911 158.169 80.2671C157.526 80.643 157.028 81.1728 156.676 81.8564C156.325 82.54 156.13 83.3422 156.094 84.263C156.082 84.4809 156.076 84.7585 156.076 85.0958C156.076 85.4332 156.082 85.7037 156.094 85.9074C156.13 86.7997 156.325 87.3819 156.676 87.6541C157.028 87.9122 157.526 87.8533 158.169 87.4773ZM168.266 83.6613C167.526 84.094 166.883 84.2802 166.337 84.2199C165.803 84.1385 165.391 83.8315 165.1 83.299C164.808 82.7525 164.663 81.9943 164.663 81.0245V75.1003C164.663 74.9597 164.705 74.8154 164.79 74.6674C164.875 74.5194 164.978 74.4099 165.1 74.3389L166.701 73.4026C166.835 73.3246 166.938 73.3135 167.011 73.3693C167.096 73.418 167.138 73.5127 167.138 73.6532V79.4509C167.138 81.1937 167.799 81.6786 169.122 80.9054C169.753 80.5365 170.25 80.0138 170.614 79.3371C170.99 78.6534 171.179 77.904 171.179 77.0888V71.2911C171.179 71.1505 171.221 71.0062 171.306 70.8582C171.391 70.7101 171.494 70.6006 171.615 70.5297L173.217 69.5934C173.338 69.5224 173.441 69.5113 173.526 69.5601C173.611 69.6088 173.654 69.7034 173.654 69.844V79.795C173.654 79.9355 173.611 80.0798 173.526 80.2278C173.441 80.3759 173.338 80.4854 173.217 80.5563L171.743 81.4182C171.609 81.4962 171.5 81.5108 171.415 81.4621C171.342 81.4063 171.306 81.3081 171.306 81.1676V80.3032C170.978 80.9866 170.572 81.6108 170.087 82.1756C169.601 82.7405 168.994 83.2357 168.266 83.6613ZM180.335 76.3949C179.607 76.8206 178.994 77.0312 178.497 77.0269C177.999 77.0226 177.629 76.8032 177.387 76.3688C177.144 75.9204 177.023 75.2605 177.023 74.389V69.6033L175.585 70.4439C175.463 70.5148 175.36 70.5259 175.275 70.4772C175.19 70.4285 175.148 70.3338 175.148 70.1933V68.9705C175.148 68.8299 175.19 68.6856 175.275 68.5376C175.36 68.3896 175.463 68.2801 175.585 68.2091L177.023 67.3685V63.8688C177.023 63.7283 177.059 63.5875 177.132 63.4466C177.217 63.2986 177.326 63.1855 177.459 63.1075L178.934 62.2456C179.055 62.1747 179.158 62.1636 179.243 62.2123C179.328 62.2611 179.37 62.3557 179.37 62.4962V65.9959L181.646 64.6659C181.767 64.595 181.87 64.5839 181.955 64.6326C182.04 64.6813 182.082 64.776 182.082 64.9165V66.1393C182.082 66.2799 182.04 66.4242 181.955 66.5722C181.87 66.7202 181.767 66.8297 181.646 66.9007L179.37 68.2307V72.8056C179.37 73.3819 179.455 73.782 179.625 74.0059C179.807 74.2228 180.117 74.2035 180.554 73.9482L181.809 73.214C181.931 73.1431 182.034 73.132 182.119 73.1807C182.204 73.2294 182.246 73.3241 182.246 73.4646V74.7717C182.246 74.9123 182.204 75.0566 182.119 75.2046C182.034 75.3527 181.931 75.4621 181.809 75.5331L180.335 76.3949ZM191.533 70.0596C190.792 70.4923 190.149 70.6785 189.603 70.6182C189.069 70.5368 188.657 70.2298 188.366 69.6973C188.074 69.1508 187.929 68.3926 187.929 67.4228V61.4986C187.929 61.358 187.971 61.2137 188.056 61.0657C188.141 60.9177 188.244 60.8082 188.366 60.7372L189.967 59.8009C190.101 59.7229 190.204 59.7118 190.277 59.7676C190.362 59.8163 190.404 59.9109 190.404 60.0515V65.8492C190.404 67.592 191.065 68.0768 192.388 67.3037C193.019 66.9348 193.516 66.412 193.88 65.7354C194.257 65.0517 194.445 64.3023 194.445 63.4871V57.6894C194.445 57.5488 194.487 57.4045 194.572 57.2565C194.657 57.1084 194.76 56.9989 194.881 56.928L196.483 55.9917C196.604 55.9207 196.708 55.9096 196.793 55.9583C196.877 56.0071 196.92 56.1017 196.92 56.2423V66.1932C196.92 66.3338 196.877 66.4781 196.793 66.6261C196.708 66.7742 196.604 66.8837 196.483 66.9546L195.009 67.8165C194.875 67.8945 194.766 67.9091 194.681 67.8604C194.608 67.8046 194.572 67.7064 194.572 67.5658V66.7015C194.244 67.3849 193.838 68.0091 193.353 68.5739C192.867 69.1387 192.261 69.634 191.533 70.0596ZM202.91 63.4084C202.182 63.834 201.557 64.1009 201.035 64.2092C200.525 64.3103 200.107 64.3091 199.779 64.2055C199.451 64.1018 199.209 63.9486 199.051 63.7456C198.893 63.5427 198.808 63.3464 198.796 63.1567C198.784 63.0092 198.821 62.8684 198.905 62.7345C199.003 62.5793 199.106 62.4698 199.215 62.406L200.653 61.5654C200.701 61.537 200.744 61.5192 200.78 61.512C200.817 61.5048 200.865 61.5186 200.926 61.5534C201.083 61.6158 201.247 61.6816 201.417 61.751C201.599 61.8132 201.811 61.8367 202.054 61.8213C202.297 61.7919 202.6 61.6708 202.964 61.458C203.437 61.1813 203.832 60.8454 204.147 60.4501C204.475 60.0337 204.639 59.6217 204.639 59.2141C204.639 58.9189 204.566 58.7226 204.42 58.625C204.287 58.5203 204.032 58.5076 203.656 58.587C203.28 58.6523 202.746 58.8027 202.054 59.0384C201.375 59.2529 200.81 59.3509 200.362 59.3322C199.913 59.3136 199.579 59.1573 199.36 58.8633C199.142 58.5694 199.033 58.1413 199.033 57.5791C199.033 57.0309 199.172 56.4293 199.451 55.7742C199.743 55.098 200.167 54.4351 200.726 53.7855C201.296 53.1289 202 52.5558 202.837 52.0664C203.492 51.6833 204.062 51.4483 204.548 51.3613C205.033 51.2603 205.433 51.2581 205.749 51.3548C206.076 51.4444 206.325 51.5871 206.495 51.7829C206.665 51.9647 206.756 52.1575 206.768 52.3612C206.78 52.5087 206.744 52.6565 206.659 52.8045C206.574 52.9385 206.477 53.0374 206.368 53.1013L205.021 53.8887C204.96 53.9241 204.906 53.942 204.857 53.9423C204.809 53.9425 204.76 53.9358 204.711 53.922C204.578 53.8595 204.432 53.797 204.275 53.7346C204.117 53.6722 203.923 53.6522 203.692 53.6745C203.474 53.6757 203.183 53.7827 202.819 53.9955C202.358 54.2651 202.006 54.5903 201.763 54.9711C201.52 55.3378 201.399 55.6969 201.399 56.0483C201.399 56.2872 201.454 56.4661 201.563 56.585C201.684 56.6827 201.921 56.706 202.273 56.6549C202.624 56.6038 203.158 56.4533 203.874 56.2034C204.687 55.8968 205.33 55.7739 205.803 55.8345C206.289 55.8741 206.629 56.0549 206.823 56.3772C207.029 56.6782 207.132 57.0888 207.132 57.6088C207.132 58.2413 206.968 58.9063 206.641 59.6038C206.325 60.2942 205.852 60.9714 205.221 61.6354C204.602 62.2783 203.832 62.8693 202.91 63.4084Z" fill="#455A64"/>
<path opacity="0.1" d="M66.5653 152.703L107.995 128.781V196.323L66.4453 220.179L66.5653 152.703Z" fill="#F6AF19"/>
<path opacity="0.15" d="M117.126 124.76L167.106 95.906C168.114 95.306 168.906 95.762 168.906 96.884C168.869 97.5048 168.686 98.1081 168.374 98.6457C168.061 99.1833 167.627 99.6403 167.106 99.98L117.12 129.158C116.118 129.758 115.32 129.278 115.32 128.12V127.91C115.354 127.28 115.535 126.667 115.849 126.12C116.162 125.573 116.6 125.107 117.126 124.76Z" fill="#F6AF19"/>
<path opacity="0.1" d="M116.605 133.498L199.309 85.7502C200.029 85.3362 200.611 85.6302 200.611 86.4042C200.579 86.8413 200.444 87.2648 200.218 87.6401C199.992 88.0154 199.68 88.3321 199.309 88.5642L116.605 136.312C115.891 136.726 115.309 136.432 115.309 135.658C115.34 135.222 115.474 134.799 115.699 134.424C115.924 134.048 116.234 133.731 116.605 133.498Z" fill="#F6AF19"/>
<path opacity="0.1" d="M116.605 139.154L199.309 91.4065C200.029 90.9925 200.611 91.2865 200.611 92.0605C200.579 92.4976 200.444 92.921 200.218 93.2964C199.992 93.6717 199.68 93.9883 199.309 94.2205L116.605 141.968C115.891 142.382 115.309 142.088 115.309 141.308C115.341 140.873 115.475 140.451 115.7 140.077C115.925 139.703 116.235 139.387 116.605 139.154Z" fill="#F6AF19"/>
<path opacity="0.1" d="M116.605 144.795L199.309 97.0469C200.029 96.6329 200.611 96.9269 200.611 97.7069C200.578 98.143 200.443 98.5652 200.217 98.9394C199.991 99.3137 199.68 99.6294 199.309 99.8609L116.605 147.597C115.891 148.011 115.309 147.717 115.309 146.937C115.344 146.504 115.479 146.085 115.704 145.713C115.929 145.341 116.237 145.027 116.605 144.795Z" fill="#F6AF19"/>
<path opacity="0.1" d="M116.605 150.451L199.309 102.703C200.029 102.289 200.611 102.583 200.611 103.357C200.579 103.794 200.444 104.218 200.218 104.593C199.992 104.969 199.68 105.285 199.309 105.517L116.605 153.265C115.891 153.679 115.309 153.385 115.309 152.611C115.34 152.175 115.474 151.752 115.699 151.377C115.924 151.002 116.234 150.685 116.605 150.451Z" fill="#F6AF19"/>
<path opacity="0.1" d="M116.605 156.1L174.313 122.5C175.027 122.086 175.609 122.38 175.609 123.16C175.576 123.595 175.442 124.017 175.217 124.391C174.992 124.765 174.682 125.081 174.313 125.314L116.605 158.914C115.891 159.328 115.309 159.034 115.309 158.254C115.341 157.819 115.475 157.397 115.7 157.023C115.925 156.649 116.235 156.333 116.605 156.1Z" fill="#F6AF19"/>
<path opacity="0.1" d="M116.605 167.397L199.309 119.649C200.029 119.235 200.611 119.529 200.611 120.303C200.579 120.74 200.444 121.163 200.218 121.539C199.992 121.914 199.68 122.23 199.309 122.463L116.605 170.211C115.891 170.625 115.309 170.331 115.309 169.557C115.34 169.12 115.474 168.697 115.699 168.322C115.924 167.947 116.234 167.63 116.605 167.397Z" fill="#F6AF19"/>
<path opacity="0.1" d="M116.605 173.053L199.309 125.305C200.029 124.891 200.611 125.185 200.611 125.959C200.579 126.396 200.444 126.819 200.218 127.195C199.992 127.57 199.68 127.887 199.309 128.119L116.605 175.867C115.891 176.281 115.309 175.987 115.309 175.207C115.341 174.771 115.475 174.35 115.7 173.976C115.925 173.602 116.235 173.285 116.605 173.053Z" fill="#F6AF19"/>
<path opacity="0.1" d="M116.605 178.701L199.309 130.953C200.029 130.539 200.611 130.833 200.611 131.613C200.578 132.049 200.443 132.471 200.217 132.846C199.991 133.22 199.68 133.536 199.309 133.767L116.605 181.521C115.891 181.935 115.309 181.641 115.309 180.861C115.341 180.425 115.475 180.002 115.7 179.627C115.925 179.252 116.235 178.935 116.605 178.701Z" fill="#F6AF19"/>
<path opacity="0.1" d="M116.602 184.353L146.998 166.617C147.713 166.203 148.295 166.497 148.295 167.277C148.262 167.713 148.128 168.134 147.903 168.508C147.678 168.883 147.368 169.199 146.998 169.431L116.609 187.167C115.895 187.581 115.312 187.287 115.312 186.513C115.343 186.077 115.476 185.655 115.7 185.28C115.924 184.904 116.233 184.587 116.602 184.353Z" fill="#F6AF19"/>
<path d="M227.123 151.916C231.521 137.648 235.799 128.246 231.437 125.336C227.381 126.092 225.563 128.102 224.699 133.454C223.793 139.064 221.909 146.888 220.811 151.4C219.862 155.171 218.504 158.826 216.761 162.302C216.499 162.783 216.073 163.155 215.561 163.352C214.205 163.886 213.557 164.552 212.453 165.368C211.583 165.968 210.947 166.052 210.989 166.31C211.061 166.599 211.243 166.85 211.496 167.007C211.75 167.164 212.055 167.215 212.345 167.15C212.997 167.027 213.632 166.825 214.235 166.55C213.717 167.865 212.909 169.046 211.871 170.006C209.741 171.806 210.071 173.564 213.485 173.768C214.685 173.84 217.547 172.724 220.181 168.242C221.072 166.571 221.856 164.846 222.527 163.076C224.363 158.48 226.241 154.796 227.123 151.916Z" fill="#FFA8A7"/>
<path d="M232.2 125.167C232.2 125.167 228.816 124.993 226.764 127.255C224.712 129.517 222.324 143.029 222.324 143.029C222.324 143.029 224.568 146.113 230.484 144.829L232.2 125.167Z" fill="#F6AF19"/>
<path opacity="0.3" d="M232.2 125.167C232.2 125.167 228.816 124.993 226.764 127.255C224.712 129.517 222.324 143.029 222.324 143.029C222.324 143.029 224.568 146.113 230.484 144.829L232.2 125.167Z" fill="black"/>
<path d="M248.046 221.023H243.504V229.123H248.046V221.023Z" fill="#FFA8A7"/>
<path d="M232.297 220.591L227.755 220.759L227.527 212.185L232.297 212.023V220.591Z" fill="#FFA8A7"/>
<path d="M248.689 150.898C248.689 155.416 248.023 191.776 248.023 191.776C248.125 193.078 249.295 195.478 249.043 200.47C248.701 207.25 248.239 225.07 248.239 225.07C247.459 225.471 246.599 225.689 245.722 225.708C244.846 225.727 243.977 225.545 243.181 225.178C243.181 225.178 238.885 200.488 238.075 193.762C237.361 187.9 236.155 168.148 236.155 168.148L233.695 191.11C234.219 193.581 234.409 196.112 234.259 198.634C234.043 201.742 232.585 217.936 232.585 217.936C231.8 218.399 230.919 218.676 230.011 218.748C229.102 218.82 228.189 218.684 227.341 218.35C227.341 218.35 224.755 193.966 224.701 191.11C224.641 187.858 226.213 150.844 226.213 150.844L248.689 150.898Z" fill="#37474F"/>
<path d="M243.502 226.8V226.122C243.064 226.32 242.056 230.322 240.256 232.05C238.822 233.406 236.866 234.978 236.368 236.496C235.87 238.014 239.092 238.95 240.43 238.704C241.984 238.416 244.684 237.276 245.356 236.214C246.028 235.152 246.352 233.598 246.904 232.824C247.456 232.05 248.704 231.186 249.016 230.286C249.184 229.794 249.016 228.714 248.758 227.802C248.5 226.89 248.32 226.044 248.044 226.122V226.638C247.407 227.166 246.604 227.451 245.776 227.442C245.11 227.46 243.496 227.322 243.502 226.8Z" fill="#263238"/>
<path d="M227.707 219.303C227.473 219.303 227.281 219.657 226.759 220.245C225.988 221.058 225.085 221.736 224.089 222.249C222.385 223.137 219.079 224.499 217.579 225.201C216.649 225.639 216.691 226.815 217.657 227.487C218.623 228.159 220.957 228.639 223.759 227.985C225.283 227.631 227.275 226.185 228.529 226.239C229.783 226.293 232.129 226.305 233.071 225.639C234.013 224.973 233.629 223.551 233.365 222.327C233.077 220.995 232.723 218.913 232.297 219.003V219.465C231.751 220.323 228.931 220.665 227.731 220.065L227.707 219.303Z" fill="#263238"/>
<path d="M236.152 168.155C233.788 167.383 231.627 166.091 229.828 164.375C229.828 164.375 231.028 166.775 234.676 168.971L233.902 189.479L236.152 168.155Z" fill="#263238"/>
<path d="M246.323 126.249C246.323 126.249 249.875 126.579 249.623 133.347L248.837 144.147V160.347C245.495 164.133 230.687 163.851 225.617 160.041C225.617 160.041 226.187 140.883 226.529 133.509C226.775 128.271 227.981 125.631 233.129 125.055L239.459 125.331L246.323 126.249Z" fill="#F6AF19"/>
<path opacity="0.3" d="M236.224 129.805L235.408 135.493L233.512 135.457L235.654 135.799L236.224 129.805Z" fill="black"/>
<path d="M240.966 110.997C241.003 112.828 240.312 114.599 239.044 115.921C237.776 117.243 236.035 118.008 234.204 118.047C230.466 118.047 227.604 114.885 227.436 111.003C227.142 104.121 230.466 103.953 234.204 103.953C236.034 103.993 237.774 104.756 239.042 106.077C240.309 107.397 241.001 109.167 240.966 110.997Z" fill="#263238"/>
<path d="M244.798 114.484C244.798 114.484 243.76 119.56 243.346 120.394C243.078 120.903 242.622 121.287 242.074 121.462L242.146 117.892L244.798 114.484Z" fill="#263238"/>
<path d="M243.515 107.213C243.515 107.213 244.259 107.027 245.051 108.263C245.729 109.319 245.885 111.695 244.817 114.485L242.867 114.719L243.515 107.213Z" fill="#263238"/>
<path d="M242.28 114.72C242.67 114.966 243.228 114.18 243.714 113.652C244.2 113.124 245.772 112.41 246.564 114.132C247.356 115.854 245.868 118.218 244.626 118.626C242.484 119.328 242.166 117.894 242.166 117.894L241.998 125.934C239.16 130.332 232.722 130.17 235.038 125.724V123.276C234.085 123.435 233.117 123.487 232.152 123.432C230.58 123.174 229.59 121.884 229.11 120.108C228.342 117.258 228.054 114.96 228.702 109.35C229.422 103.2 236.286 103.146 240 105.6C243.714 108.054 242.28 114.72 242.28 114.72Z" fill="#FFA8A7"/>
<path d="M242.035 124.134C241.374 125.485 240.426 126.675 239.257 127.62C238.263 128.354 237.109 128.844 235.891 129.048C236.896 129.729 237.72 130.646 238.291 131.718C239.005 133.278 244.003 128.976 243.955 125.922C243.955 125.922 243.175 122.856 242.095 122.664L242.035 124.134Z" fill="#263238"/>
<path d="M235.888 129.045C235.888 129.045 234.346 128.283 235.036 125.721V123.273L234.358 123.363C233.568 124.133 233.007 125.108 232.738 126.177C232.582 126.879 232.198 130.431 232.876 131.133C233.554 131.835 234.502 129.237 235.888 129.045Z" fill="#263238"/>
<path d="M239.651 108.001C239.827 107.963 240.009 107.973 240.179 108.031C240.779 108.295 240.887 110.107 240.989 110.629C241.331 112.387 241.619 115.369 242.279 115.381C242.477 115.381 243.227 114.091 243.713 113.629C244.391 112.987 243.515 107.191 243.515 107.191C243.694 106.69 243.728 106.15 243.613 105.631C243.499 105.112 243.24 104.636 242.867 104.257C241.667 102.865 239.735 102.553 237.989 102.457C235.931 102.343 233.843 102.499 231.815 102.049C231.178 101.872 230.531 101.734 229.877 101.635C229.85 101.623 229.82 101.617 229.79 101.617C229.76 101.617 229.731 101.623 229.703 101.635C229.637 101.689 229.649 101.791 229.667 101.875C229.794 102.483 230.009 103.069 230.303 103.615C229.096 103.52 227.904 103.284 226.751 102.913C226.685 102.892 226.614 102.892 226.547 102.913C226.409 102.955 226.385 103.135 226.397 103.279C226.475 104.731 227.165 106.927 228.347 107.779C229.395 108.465 230.612 108.849 231.863 108.889C235.043 109.009 236.999 108.337 239.651 108.001Z" fill="#263238"/>
<path d="M243.516 107.519L245.886 106.193C245.814 106.03 245.708 105.883 245.576 105.763C245.444 105.643 245.288 105.552 245.118 105.496C244.949 105.439 244.77 105.419 244.592 105.435C244.414 105.452 244.242 105.506 244.086 105.593C243.771 105.788 243.538 106.092 243.433 106.447C243.328 106.802 243.357 107.184 243.516 107.519Z" fill="#263238"/>
<path d="M235.043 123.277C235.043 123.277 238.553 122.539 239.783 121.861C240.512 121.461 241.103 120.85 241.481 120.109C241.298 120.854 240.97 121.556 240.515 122.173C239.621 123.373 235.043 124.249 235.043 124.249V123.277Z" fill="#F28F8F"/>
<path d="M235.888 113.807C235.901 113.942 235.953 114.071 236.037 114.177C236.121 114.284 236.235 114.364 236.364 114.407C236.493 114.45 236.631 114.455 236.763 114.421C236.894 114.387 237.013 114.315 237.105 114.215C237.197 114.114 237.257 113.99 237.279 113.856C237.302 113.721 237.284 113.584 237.23 113.459C237.175 113.335 237.086 113.229 236.972 113.154C236.859 113.08 236.726 113.04 236.59 113.039C236.493 113.042 236.398 113.065 236.31 113.105C236.221 113.146 236.142 113.203 236.077 113.275C236.011 113.346 235.961 113.43 235.929 113.522C235.896 113.613 235.882 113.71 235.888 113.807Z" fill="#263238"/>
<path d="M237 110.767L238.506 111.631C238.615 111.423 238.644 111.183 238.587 110.955C238.531 110.727 238.393 110.528 238.2 110.395C238.099 110.331 237.986 110.289 237.867 110.273C237.748 110.257 237.628 110.267 237.514 110.302C237.399 110.338 237.294 110.398 237.205 110.478C237.117 110.558 237.047 110.657 237 110.767Z" fill="#263238"/>
<path d="M235.362 118.867L233.754 119.467C233.786 119.578 233.84 119.68 233.913 119.769C233.986 119.858 234.077 119.931 234.179 119.983C234.281 120.035 234.393 120.066 234.508 120.073C234.623 120.081 234.738 120.064 234.846 120.025C235.06 119.93 235.231 119.759 235.326 119.545C235.421 119.331 235.434 119.09 235.362 118.867Z" fill="#F28F8F"/>
<path d="M229.427 111.415L230.801 110.311C230.739 110.214 230.658 110.132 230.561 110.069C230.465 110.006 230.357 109.965 230.243 109.947C230.13 109.929 230.014 109.936 229.903 109.967C229.793 109.997 229.69 110.051 229.601 110.125C229.418 110.28 229.299 110.498 229.267 110.736C229.234 110.975 229.292 111.216 229.427 111.415Z" fill="#263238"/>
<path d="M230.032 113.596C230.028 113.692 230.043 113.788 230.076 113.878C230.109 113.968 230.16 114.05 230.225 114.121C230.291 114.191 230.369 114.247 230.456 114.287C230.544 114.327 230.638 114.349 230.734 114.352C230.936 114.352 231.13 114.272 231.273 114.129C231.416 113.986 231.496 113.792 231.496 113.59C231.496 113.388 231.416 113.194 231.273 113.051C231.13 112.908 230.936 112.828 230.734 112.828C230.54 112.839 230.357 112.925 230.226 113.069C230.095 113.213 230.025 113.402 230.032 113.596Z" fill="#263238"/>
<path d="M233.801 113.008L233.717 117.454L231.191 116.872L233.801 113.008Z" fill="#F28F8F"/>
<path d="M253.237 117.477C254.251 116.133 256.303 119.115 257.251 121.173C258.199 123.231 258.217 124.395 257.437 125.211C256.657 126.027 255.187 125.535 253.717 123.585C252.247 121.635 252.655 118.467 253.237 117.477Z" fill="#F6AF19"/>
<path opacity="0.5" d="M253.237 117.477C254.251 116.133 256.303 119.115 257.251 121.173C258.199 123.231 258.217 124.395 257.437 125.211C256.657 126.027 255.187 125.535 253.717 123.585C252.247 121.635 252.655 118.467 253.237 117.477Z" fill="black"/>
<path d="M260.401 117.875C256.801 126.275 251.791 131.009 249.541 136.415C246.595 136.217 244.297 129.095 246.493 126.053C246.493 126.053 255.121 116.711 255.901 113.039C256.597 109.781 257.527 104.405 257.449 101.639C257.418 101.189 257.229 100.763 256.915 100.439C256.009 99.461 256.009 98.681 255.427 97.607C254.977 96.767 254.479 96.455 254.623 96.263C254.81 96.0634 255.065 95.9414 255.337 95.9214C255.61 95.9014 255.88 95.9848 256.093 96.155C256.51 96.4595 256.883 96.8187 257.203 97.223C257.314 96.1444 257.138 95.0557 256.693 94.067C255.691 91.799 255.937 90.647 258.991 91.451C260.911 91.961 262.111 93.557 262.399 98.159C262.533 100.074 262.545 101.996 262.435 103.913C262.099 107.459 261.889 111.155 261.451 114.113C261.262 115.406 260.909 116.671 260.401 117.875Z" fill="#FFA8A7"/>
<path d="M245.59 126.153L253.198 117.453C253.198 117.453 252.292 119.571 254.272 122.661C256.252 125.751 257.428 125.211 257.428 125.211C257.428 125.211 252.934 131.769 251.734 133.965C250.534 136.161 249.28 138.015 249.28 138.015C249.148 138.271 248.941 138.482 248.688 138.62C248.434 138.758 248.145 138.817 247.858 138.789C246.742 138.789 243.784 133.833 245.59 126.153Z" fill="#F6AF19"/>
<path opacity="0.3" d="M245.59 126.153L253.198 117.453C253.198 117.453 252.292 119.571 254.272 122.661C256.252 125.751 257.428 125.211 257.428 125.211C257.428 125.211 252.934 131.769 251.734 133.965C250.534 136.161 249.28 138.015 249.28 138.015C249.148 138.271 248.941 138.482 248.688 138.62C248.434 138.758 248.145 138.817 247.858 138.789C246.742 138.789 243.784 133.833 245.59 126.153Z" fill="black"/>
<path d="M183.853 145.703L187.435 150.473L183.583 154.883L178.621 149.081L183.853 145.703Z" fill="#F28F8F"/>
<path d="M172.121 134.859C175.247 135.003 176.735 135.459 178.373 137.415C180.011 139.371 188.195 151.197 188.195 151.197C188.195 151.197 186.749 155.253 183.581 154.905L177.827 148.971L172.121 134.859Z" fill="#455A64"/>
<path d="M156.786 233.93C156.563 235.174 156.443 236.434 156.426 237.698C156.384 239.978 155.964 240.794 155.91 242.666C155.844 244.808 156.216 245.612 157.11 246.812C158.004 248.012 160.26 249.11 161.226 247.076C162.192 245.042 162.066 243.71 161.754 241.604C161.442 239.498 161.394 238.232 161.214 236.576C161.046 235.112 160.854 234.002 160.854 234.002L156.786 233.93Z" fill="#263238"/>
<path d="M163.272 215.997L155.742 215.859C155.856 220.887 156.654 229.251 156.786 233.961C156.786 234.849 156.786 240.855 157.098 242.685C157.602 245.427 160.854 245.055 161.028 243.417C161.202 241.779 160.818 234.759 160.83 234.033C160.8 231.033 162.216 223.125 162.96 217.695C162.996 217.401 163.236 216.225 163.272 215.997Z" fill="#FFBDA7"/>
<path d="M174.333 230.023C174.333 230.023 173.949 230.023 173.883 230.359C173.817 230.695 173.793 231.331 173.637 231.955C173.381 232.934 173.292 233.948 173.373 234.955C173.499 235.657 175.101 236.701 176.199 236.887C177.297 237.073 178.839 238.153 179.697 238.963C181.075 240.101 182.779 240.769 184.563 240.871C186.363 240.871 187.665 240.271 188.265 239.287C188.865 238.303 187.719 238.189 185.631 236.833L184.005 235.777C180.699 233.617 179.487 232.459 178.551 230.299L174.333 230.023Z" fill="#263238"/>
<path d="M178.572 228.848C178.518 227.288 179.31 215.828 179.31 215.828L172.836 216.56C174.372 225.692 174.492 228.806 174.318 230.138C174.285 230.261 174.271 230.389 174.276 230.516C174.276 232.316 176.286 233.252 177.876 234.434C178.476 234.902 180.078 236.342 181.938 236.972C183.138 237.386 185.364 237.572 185.646 236.81C183.75 235.358 181.158 233.462 179.646 231.8C178.902 230.996 178.626 230.396 178.572 228.848Z" fill="#FFBDA7"/>
<path d="M157.49 164.011C153.962 171.727 157.622 198.895 157.622 198.895C157.514 200.149 156.08 202.609 155.552 208.123C154.922 214.627 156.71 232.057 156.71 232.057C157.341 232.439 158.061 232.649 158.798 232.665C159.536 232.68 160.264 232.502 160.91 232.147C160.91 232.147 165.464 206.539 166.31 200.071C167.024 194.419 168.392 181.999 168.392 181.999L172.28 200.035C171.71 201.856 171.297 203.723 171.044 205.615C170.678 209.419 174.386 228.529 174.386 228.529C175.055 228.805 175.772 228.94 176.495 228.925C177.218 228.911 177.93 228.747 178.586 228.445C178.586 228.445 180.224 203.761 180.572 199.177C181.172 191.473 179.102 167.443 177.692 162.883L157.49 164.011Z" fill="#F6AF19"/>
<path opacity="0.5" d="M157.49 164.011C153.962 171.727 157.622 198.895 157.622 198.895C157.514 200.149 156.08 202.609 155.552 208.123C154.922 214.627 156.71 232.057 156.71 232.057C157.341 232.439 158.061 232.649 158.798 232.665C159.536 232.68 160.264 232.502 160.91 232.147C160.91 232.147 165.464 206.539 166.31 200.071C167.024 194.419 168.392 181.999 168.392 181.999L172.28 200.035C171.71 201.856 171.297 203.723 171.044 205.615C170.678 209.419 174.386 228.529 174.386 228.529C175.055 228.805 175.772 228.94 176.495 228.925C177.218 228.911 177.93 228.747 178.586 228.445C178.586 228.445 180.224 203.761 180.572 199.177C181.172 191.473 179.102 167.443 177.692 162.883L157.49 164.011Z" fill="black"/>
<path opacity="0.2" d="M168.379 182.002L169.525 174.838C169.525 174.838 174.373 173.836 176.575 171.766C175.056 173.546 173.069 174.866 170.839 175.576L169.549 181.096L171.805 197.794L168.379 182.002Z" fill="black"/>
<path d="M159.301 140.052L164.101 141.3V131.142C161.449 130.452 159.301 131.982 159.301 134.562V140.052Z" fill="#F6AF19"/>
<path opacity="0.6" d="M159.301 140.052L164.101 141.3V131.142C161.449 130.452 159.301 131.982 159.301 134.562V140.052Z" fill="black"/>
<path d="M168.804 132.596L167.082 132.56C161.826 132.434 157.662 127.904 157.776 122.432C157.776 116.468 162.396 111.632 168.12 111.578C173.844 111.548 178.512 116.378 178.542 122.318V122.918C178.398 128.396 174.048 132.71 168.804 132.596Z" fill="#F6AF19"/>
<path opacity="0.6" d="M168.804 132.596L167.082 132.56C161.826 132.434 157.662 127.904 157.776 122.432C157.776 116.468 162.396 111.632 168.12 111.578C173.844 111.548 178.512 116.378 178.542 122.318V122.918C178.398 128.396 174.048 132.71 168.804 132.596Z" fill="black"/>
<path d="M160.758 114.068C160.716 113.894 160.639 113.73 160.531 113.588C160.423 113.445 160.287 113.326 160.131 113.238C159.975 113.15 159.803 113.095 159.625 113.077C159.447 113.059 159.267 113.078 159.096 113.132L159.558 114.932C159.463 114.811 159.344 114.709 159.21 114.632C159.055 114.544 158.882 114.49 158.704 114.472C158.526 114.455 158.346 114.475 158.177 114.532C158.007 114.589 157.851 114.68 157.719 114.801C157.587 114.921 157.482 115.068 157.41 115.232L159.75 116.606C159.872 116.371 159.926 116.108 159.906 115.844C160.241 115.704 160.513 115.445 160.67 115.118C160.827 114.791 160.858 114.417 160.758 114.068Z" fill="#F6AF19"/>
<path opacity="0.6" d="M160.758 114.068C160.716 113.894 160.639 113.73 160.531 113.588C160.423 113.445 160.287 113.326 160.131 113.238C159.975 113.15 159.803 113.095 159.625 113.077C159.447 113.059 159.267 113.078 159.096 113.132L159.558 114.932C159.463 114.811 159.344 114.709 159.21 114.632C159.055 114.544 158.882 114.49 158.704 114.472C158.526 114.455 158.346 114.475 158.177 114.532C158.007 114.589 157.851 114.68 157.719 114.801C157.587 114.921 157.482 115.068 157.41 115.232L159.75 116.606C159.872 116.371 159.926 116.108 159.906 115.844C160.241 115.704 160.513 115.445 160.67 115.118C160.827 114.791 160.858 114.417 160.758 114.068Z" fill="black"/>
<path d="M163.597 135.272C161.981 135.491 160.379 135.799 158.797 136.196C160.657 140.756 157.741 147.8 157.741 147.8L160.495 156.278C158.593 160.172 157.027 162.104 156.379 165.278C158.131 168.698 170.497 171.962 178.549 165.728C178.549 165.728 178.291 157.07 177.265 152.024C179.899 146.882 179.473 145.37 178.933 143.576C177.679 139.406 175.147 137.804 172.129 134.864L170.329 134.672L163.597 135.272Z" fill="#37474F"/>
<path d="M160.799 159.676C162.293 158.146 165.461 157.708 165.461 157.708L162.551 156.052L159.299 148.198C160.664 145.524 161.338 142.552 161.261 139.552L159.389 139.102C159.617 143.26 157.733 147.808 157.733 147.808L160.487 156.286C158.585 160.18 157.019 162.112 156.371 165.286C157.571 167.626 163.745 169.894 170.105 169.09C161.585 168.514 159.365 161.158 160.799 159.676Z" fill="#263238"/>
<path d="M169.41 169.153L169.758 169.117C169.641 169.119 169.525 169.131 169.41 169.153Z" fill="#E6E6E6"/>
<path d="M174.678 116.891C175.71 117.839 177 119.891 176.898 125.891C176.808 130.991 175.23 132.257 174.432 132.623C173.634 132.989 172.104 132.779 170.61 132.527V134.639C170.61 134.639 172.578 136.823 172.458 138.239C172.338 139.655 169.65 140.225 167.712 138.839C166.346 137.805 165.134 136.583 164.112 135.209V128.795C164.112 128.795 163.236 129.689 161.712 128.345C160.512 127.229 160.056 125.345 161.01 124.325C161.255 124.083 161.555 123.905 161.885 123.807C162.214 123.709 162.563 123.693 162.9 123.761C163.237 123.83 163.553 123.98 163.818 124.198C164.084 124.417 164.292 124.697 164.424 125.015C166.71 124.775 168.937 124.134 171 123.119C172.16 122.561 173.129 121.671 173.783 120.562C174.438 119.454 174.749 118.176 174.678 116.891Z" fill="#FFBDA7"/>
<path d="M170.606 124.749C170.606 124.865 170.572 124.979 170.508 125.076C170.443 125.174 170.352 125.25 170.246 125.297C170.139 125.343 170.021 125.358 169.906 125.338C169.791 125.319 169.684 125.266 169.599 125.187C169.513 125.108 169.452 125.005 169.424 124.892C169.396 124.779 169.401 124.66 169.439 124.55C169.477 124.44 169.547 124.344 169.639 124.272C169.731 124.201 169.842 124.158 169.958 124.149C170.123 124.145 170.283 124.206 170.403 124.318C170.524 124.43 170.597 124.584 170.606 124.749Z" fill="#263238"/>
<path d="M170.837 129L172.439 129.522C172.414 129.631 172.366 129.734 172.299 129.825C172.232 129.915 172.147 129.991 172.05 130.047C171.953 130.103 171.845 130.139 171.733 130.152C171.622 130.165 171.509 130.154 171.401 130.122C171.183 130.04 171.004 129.88 170.899 129.672C170.795 129.464 170.772 129.224 170.837 129Z" fill="#F79776"/>
<path d="M176.399 122.454L174.941 121.956C174.964 121.859 175.008 121.767 175.068 121.688C175.129 121.608 175.205 121.542 175.293 121.494C175.381 121.446 175.477 121.417 175.577 121.409C175.677 121.4 175.777 121.413 175.871 121.446C176.068 121.519 176.231 121.663 176.328 121.849C176.426 122.035 176.451 122.251 176.399 122.454Z" fill="#263238"/>
<path d="M164.43 124.445V126.599C164.568 126.605 164.706 126.582 164.835 126.533C164.964 126.483 165.082 126.408 165.181 126.311C165.279 126.215 165.358 126.099 165.41 125.971C165.463 125.843 165.488 125.706 165.486 125.567C165.488 125.28 165.379 125.004 165.182 124.795C164.986 124.586 164.716 124.461 164.43 124.445Z" fill="#F6AF19"/>
<path opacity="0.6" d="M164.43 124.445V126.599C164.568 126.605 164.706 126.582 164.835 126.533C164.964 126.483 165.082 126.408 165.181 126.311C165.279 126.215 165.358 126.099 165.41 125.971C165.463 125.843 165.488 125.706 165.486 125.567C165.488 125.28 165.379 125.004 165.182 124.795C164.986 124.586 164.716 124.461 164.43 124.445Z" fill="black"/>
<path d="M175.874 124.541C175.887 124.713 175.831 124.884 175.719 125.016C175.606 125.147 175.446 125.229 175.274 125.243C175.142 125.256 175.009 125.229 174.892 125.166C174.775 125.102 174.68 125.006 174.618 124.888C174.557 124.77 174.532 124.637 174.547 124.505C174.562 124.373 174.616 124.248 174.703 124.147C174.789 124.046 174.904 123.974 175.032 123.938C175.16 123.903 175.295 123.906 175.421 123.949C175.547 123.991 175.657 124.07 175.738 124.176C175.819 124.281 175.866 124.408 175.874 124.541Z" fill="#263238"/>
<path d="M172.453 123.672L172.441 127.848L174.385 127.206L172.453 123.672Z" fill="#F79776"/>
<path d="M170.611 132.552C169.033 132.348 165.811 131.395 165.277 130.062C165.48 130.731 165.88 131.322 166.423 131.761C167.395 132.619 170.623 133.561 170.623 133.561L170.611 132.552Z" fill="#F79776"/>
<path d="M151.412 156.594C151.412 156.594 155.264 162.066 155.924 162.78C156.584 163.494 157.04 163.254 157.754 162.936C158.625 162.584 159.519 162.293 160.43 162.066C161.63 161.772 161.858 162.858 160.694 163.632C159.854 164.196 158.894 164.436 159.29 164.898C160.111 165.641 161.063 166.225 162.098 166.62C164.942 167.742 164.72 168.306 164.198 169.224C163.742 170.028 162.398 171.756 157.334 169.716C155.234 168.87 152.282 166.476 150.89 164.916C148.88 162.69 145.742 158.7 145.742 158.7L151.412 156.594Z" fill="#FFBDA7"/>
<path d="M159.535 136C158.143 136.09 155.521 136.426 152.233 141.886C149.347 146.686 144.877 153.172 144.049 155.494C143.713 156.436 145.021 158.386 146.707 160.384C149.005 160.282 151.099 158.692 152.185 157.42C151.9 156.743 151.546 156.098 151.129 155.494L157.873 147.802C157.873 147.802 160.435 145.456 160.969 142.402C161.545 139.09 161.365 136.486 159.535 136Z" fill="#455A64"/>
<path d="M197.294 146.352L180.668 150.732L176.09 169.542L191.9 164.952L197.294 146.352Z" fill="#F6AF19"/>
<path opacity="0.25" d="M197.294 146.352L180.668 150.732L176.09 169.542L191.9 164.952L197.294 146.352Z" fill="black"/>
<g opacity="0.1">
<path d="M189.781 159.672C190.06 160.253 190.503 160.739 191.055 161.069C191.608 161.4 192.246 161.561 192.889 161.532L193.009 161.118L189.781 159.672Z" fill="black"/>
</g>
<g opacity="0.1">
<path d="M192.283 149.341L192.421 148.705C192.499 148.357 191.521 148.339 190.243 148.705L187.789 149.305C186.511 149.641 185.389 150.193 185.335 150.541L185.203 151.177L192.283 149.341Z" fill="black"/>
</g>
<path d="M193.56 146.959C193.608 146.737 193.212 146.677 192.678 146.827L191.706 147.097C191.706 147.097 191.994 145.723 189.846 146.203C189.27 146.288 188.725 146.521 188.264 146.878C187.804 147.235 187.444 147.706 187.218 148.243L186.186 148.537C185.586 148.699 185.094 149.005 185.028 149.221L184.902 149.617L193.47 147.361L193.56 146.959Z" fill="#37474F"/>
<path d="M192.381 147.631C191.601 147.823 191.271 147.925 191.181 148.465C191.091 149.005 190.989 149.533 190.989 149.533L187.203 150.535C187.203 150.535 187.389 149.755 187.449 149.455C187.509 149.155 187.377 148.963 186.771 149.125L186.723 148.885L192.663 147.367L192.381 147.631Z" fill="#37474F"/>
<path d="M192.51 149.396L192.648 148.76C192.726 148.412 191.748 148.394 190.47 148.76L188.016 149.36C186.738 149.696 185.616 150.248 185.562 150.596L185.43 151.232L192.51 149.396Z" fill="#37474F"/>
<path d="M195.54 152.394C195.54 152.394 194.94 154.524 194.778 155.028C194.616 155.532 192.768 156.45 191.55 156.786C190.332 157.122 188.988 157.518 189.57 159.228C190.098 160.806 192.114 161.166 193.134 161.118C194.154 161.07 195.564 160.098 196.134 158.52C196.836 156.504 196.458 154.356 196.734 153.18C197.01 152.004 196.152 151.692 195.54 152.394Z" fill="#FFBDA7"/>
<path d="M132.559 152.896C130.279 150.598 129.463 151.492 129.175 154.012C129.068 155.069 128.811 156.105 128.413 157.09C128.342 156.567 128.198 156.056 127.987 155.572C127.886 155.31 127.691 155.096 127.439 154.973C127.188 154.849 126.899 154.825 126.631 154.906C126.409 154.996 126.685 155.506 126.631 156.508C126.589 157.756 126.181 158.446 126.475 159.772C126.577 160.271 126.498 160.79 126.253 161.236C125.053 163.516 121.099 167.728 118.327 170.764L107.797 161.254C104.197 158.014 103.033 156.556 99.5586 156.79C100.645 157.202 101.646 157.813 102.511 158.59C104.125 159.952 103.741 167.746 103.741 167.746C103.741 167.746 115.693 176.314 116.941 177.13C117.121 177.25 117.307 177.358 117.487 177.46C118.077 177.767 118.753 177.867 119.407 177.741C120.06 177.616 120.652 177.274 121.087 176.77C123.637 173.854 127.357 168.112 129.487 165.13C130.46 163.687 131.329 162.175 132.085 160.606C134.221 156.364 133.987 154.336 132.559 152.896Z" fill="#914F4E"/>
<path d="M99.9297 156.597C100.769 156.444 101.631 156.472 102.459 156.679C103.287 156.886 104.061 157.267 104.73 157.797C106.782 159.357 115.53 167.397 115.53 167.397C115.53 167.397 115.77 171.651 111.33 174.183L100.608 166.623L99.9297 156.597Z" fill="#F6AF19"/>
<path opacity="0.3" d="M99.9297 156.597C100.769 156.444 101.631 156.472 102.459 156.679C103.287 156.886 104.061 157.267 104.73 157.797C106.782 159.357 115.53 167.397 115.53 167.397C115.53 167.397 115.77 171.651 111.33 174.183L100.608 166.623L99.9297 156.597Z" fill="black"/>
<path d="M89.5811 252.578H85.0391V260.678H89.5811V252.578Z" fill="#914F4E"/>
<path d="M100.789 252.144L105.331 252.306L105.559 243.732L100.789 243.57V252.144Z" fill="#914F4E"/>
<path d="M84.3973 182.443C84.3973 186.961 85.0633 223.327 85.0633 223.327C84.9613 224.623 83.7913 227.023 84.0433 232.015C84.3853 238.801 84.8473 256.615 84.8473 256.615C85.6274 257.014 86.4882 257.231 87.3645 257.249C88.2408 257.266 89.1097 257.085 89.9053 256.717C89.9053 256.717 94.2013 232.027 95.0173 225.307C95.7253 219.439 96.9313 199.687 96.9313 199.687L99.3913 222.655C98.867 225.124 98.6774 227.653 98.8273 230.173C99.0433 233.281 100.501 249.475 100.501 249.475C101.287 249.94 102.168 250.219 103.078 250.292C103.987 250.364 104.902 250.229 105.751 249.895C105.751 249.895 108.331 225.505 108.385 222.655C108.445 219.403 106.873 182.383 106.873 182.383L84.3973 182.443Z" fill="#37474F"/>
<path d="M89.579 258.333V257.661C90.017 257.859 91.025 261.861 92.825 263.583C94.259 264.945 96.215 266.517 96.713 268.035C97.211 269.553 93.989 270.483 92.651 270.237C91.097 269.949 88.397 268.809 87.725 267.753C87.053 266.697 86.729 265.131 86.177 264.357C85.625 263.583 84.377 262.719 84.065 261.819C83.9758 260.982 84.0637 260.136 84.323 259.335C84.533 258.501 84.761 257.583 85.037 257.661V258.177C85.6779 258.702 86.4829 258.984 87.311 258.975C87.971 258.999 89.585 258.861 89.579 258.333Z" fill="#263238"/>
<path d="M105.377 250.848C105.611 250.848 105.803 251.202 106.325 251.79C107.096 252.601 107.999 253.277 108.995 253.788C110.699 254.676 114.005 256.044 115.505 256.746C116.441 257.184 116.393 258.36 115.427 259.026C114.461 259.692 112.127 260.178 109.325 259.53C107.801 259.17 105.809 257.73 104.525 257.784C103.241 257.838 100.925 257.844 99.9827 257.184C99.0407 256.524 99.4247 255.09 99.6887 253.872C99.9767 252.534 100.337 250.452 100.757 250.542V251.004C101.303 251.868 104.123 252.204 105.323 251.604L105.377 250.848Z" fill="#263238"/>
<path d="M96.9297 199.702C99.2935 198.93 101.454 197.638 103.254 195.922C103.254 195.922 102.054 198.322 98.4057 200.518L99.1797 221.032L96.9297 199.702Z" fill="#263238"/>
<path d="M86.7581 157.803C86.7581 157.803 83.2061 158.127 83.4581 164.901L84.2441 175.701L84.1721 191.901C87.5081 195.687 102.322 195.411 107.392 191.595C107.392 191.595 106.87 172.437 106.528 165.063C106.282 159.825 105.076 157.185 99.9281 156.609L93.5921 156.885L86.7581 157.803Z" fill="#F6AF19"/>
<path opacity="0.3" d="M96.8594 161.352L97.6754 167.04L99.5774 167.004L97.4294 167.34L96.8594 161.352Z" fill="black"/>
<path d="M75.4857 181.06C77.3277 166.24 81.5697 158.86 86.7357 158.008L86.3697 167.488C84.2187 172.544 82.5708 177.799 81.4497 183.178C80.7717 186.826 79.9857 193.168 80.1897 196.282C80.2305 196.831 80.4643 197.347 80.8497 197.74C81.8697 198.778 82.1757 199.678 82.8597 200.848C83.3997 201.766 83.9517 202.09 83.8077 202.312C83.6221 202.545 83.3529 202.697 83.0571 202.735C82.7613 202.773 82.4624 202.695 82.2237 202.516C81.6822 202.132 81.187 201.687 80.7477 201.19C80.682 202.602 80.9363 204.011 81.4917 205.312C82.6917 207.808 82.4997 209.122 79.1517 208.384C77.0517 207.928 75.5517 205.714 74.9517 200.548C74.7938 198.62 74.7598 196.684 74.8497 194.752C75.0777 189.814 75.1197 184.024 75.4857 181.06Z" fill="#914F4E"/>
<path d="M87.0279 157.758C84.3459 157.758 81.8979 158.22 79.9479 161.958C78.0819 165.558 76.6479 173.172 75.9219 175.662C75.9219 175.662 79.8399 177.978 83.4459 177.918L85.9839 169.11C85.9839 169.11 87.6999 165 87.0279 157.758Z" fill="#F6AF19"/>
<path opacity="0.3" d="M87.0279 157.758C84.3459 157.758 81.8979 158.22 79.9479 161.958C78.0819 165.558 76.6479 173.172 75.9219 175.662C75.9219 175.662 79.8399 177.978 83.4459 177.918L85.9839 169.11C85.9839 169.11 87.6999 165 87.0279 157.758Z" fill="black"/>
<path d="M92.5677 142.505C92.6218 143.831 93.0644 145.111 93.8405 146.187C94.6165 147.264 95.6918 148.088 96.9326 148.558C98.1734 149.028 99.525 149.123 100.819 148.831C102.114 148.539 103.294 147.873 104.213 146.916C105.131 145.959 105.749 144.753 105.987 143.447C106.226 142.142 106.076 140.796 105.556 139.575C105.036 138.354 104.168 137.314 103.061 136.582C101.954 135.851 100.657 135.461 99.3297 135.461C97.4996 135.5 95.7598 136.264 94.4921 137.585C93.2244 138.905 92.5323 140.675 92.5677 142.505Z" fill="#263238"/>
<path d="M88.2656 146.031C88.2656 146.031 89.3036 151.107 89.7176 151.941C89.9877 152.452 90.4461 152.837 90.9956 153.015L90.9176 149.415L88.2656 146.031Z" fill="#263238"/>
<path d="M89.568 138.757C89.568 138.757 88.8 138.601 88.032 139.801C87.354 140.857 87.204 143.233 88.266 146.023L90.216 146.257L89.568 138.757Z" fill="#263238"/>
<path d="M90.803 146.264C90.413 146.51 89.855 145.724 89.369 145.202C88.883 144.68 87.311 143.954 86.525 145.682C85.739 147.41 87.215 149.768 88.457 150.17C90.599 150.872 90.917 149.438 90.917 149.438L91.085 157.484C93.923 161.876 100.361 161.72 98.045 157.268V154.802C98.9982 154.96 99.9662 155.013 100.931 154.958C102.503 154.706 103.493 153.41 103.973 151.634C104.741 148.784 105.029 146.486 104.381 140.882C103.667 134.738 96.809 134.672 93.101 137.102C89.393 139.532 90.803 146.264 90.803 146.264Z" fill="#914F4E"/>
<path d="M91.0492 155.673C91.7094 157.024 92.6577 158.214 93.8273 159.159C94.8223 159.893 95.9749 160.384 97.1933 160.593C96.189 161.273 95.3653 162.188 94.7933 163.257C94.0853 164.823 89.0812 160.521 89.1292 157.467C89.1292 157.467 89.9152 154.401 90.9892 154.203L91.0492 155.673Z" fill="#263238"/>
<path d="M97.1992 160.593C97.1992 160.593 98.7412 159.825 98.0512 157.263V154.797L98.7292 154.887C99.5193 155.657 100.08 156.631 100.349 157.701C100.505 158.403 100.889 161.955 100.211 162.657C99.5332 163.359 98.5792 160.797 97.1992 160.593Z" fill="#263238"/>
<path d="M90.8046 146.952C90.6066 146.952 89.8566 145.662 89.3706 145.2C88.6926 144.558 89.5686 138.756 89.5686 138.756C89.392 138.255 89.359 137.715 89.4736 137.197C89.5881 136.678 89.8455 136.202 90.2166 135.822C91.1466 134.76 92.6946 134.622 95.3346 134.214C96.3887 134.084 97.4345 133.894 98.4666 133.644C99.5565 133.236 100.605 132.726 101.599 132.12C101.911 131.918 102.285 131.832 102.655 131.88C102.825 131.937 102.977 132.039 103.096 132.173C103.215 132.308 103.297 132.472 103.333 132.648C103.393 133 103.393 133.359 103.333 133.71C103.666 133.4 104.11 133.234 104.565 133.25C105.02 133.266 105.451 133.461 105.763 133.794C106.057 134.145 106.249 134.571 106.317 135.024C106.385 135.477 106.326 135.94 106.147 136.362C105.763 137.202 105.136 137.906 104.347 138.384C101.029 140.628 97.1106 140.004 93.3906 139.584C93.2149 139.545 93.0315 139.557 92.8627 139.62C92.2627 139.884 92.1546 141.69 92.0526 142.212C91.7526 143.952 91.4646 146.94 90.8046 146.952Z" fill="#263238"/>
<path d="M89.5671 139.06L87.2031 137.734C87.2748 137.571 87.3801 137.424 87.5122 137.303C87.6442 137.182 87.8001 137.091 87.9698 137.034C88.1394 136.978 88.3191 136.957 88.4971 136.975C88.6751 136.992 88.8475 137.046 89.0031 137.134C89.3174 137.33 89.5486 137.634 89.6527 137.99C89.7567 138.345 89.7263 138.726 89.5671 139.06Z" fill="#263238"/>
<path d="M98.0396 154.801C98.0396 154.801 94.5296 154.063 93.2996 153.385C92.5695 152.986 91.9775 152.375 91.6016 151.633C91.7846 152.378 92.1128 153.079 92.5676 153.697C93.4616 154.897 98.0396 155.779 98.0396 155.779V154.801Z" fill="#783736"/>
<path d="M96.7677 145.138C96.7717 145.234 96.7567 145.33 96.7236 145.42C96.6905 145.511 96.6399 145.593 96.5747 145.664C96.5095 145.735 96.431 145.792 96.3437 145.833C96.2563 145.873 96.1619 145.896 96.0657 145.9C95.8715 145.889 95.6893 145.802 95.5581 145.659C95.4269 145.515 95.3571 145.326 95.3637 145.132C95.3637 144.946 95.4377 144.767 95.5693 144.635C95.701 144.504 95.8795 144.43 96.0657 144.43C96.2519 144.43 96.4304 144.504 96.5621 144.635C96.6937 144.767 96.7677 144.946 96.7677 145.132V145.138Z" fill="#263238"/>
<path d="M95.5627 142.09L94.0567 142.954C93.9484 142.74 93.924 142.494 93.9884 142.263C94.0528 142.032 94.2013 141.833 94.4047 141.706C94.5049 141.65 94.6156 141.616 94.7298 141.605C94.844 141.594 94.9592 141.608 95.0681 141.644C95.1769 141.68 95.2771 141.738 95.3623 141.815C95.4474 141.892 95.5157 141.986 95.5627 142.09Z" fill="#263238"/>
<path d="M97.7211 150.414L99.3291 151.044C99.2975 151.154 99.2433 151.257 99.1701 151.346C99.0969 151.434 99.0062 151.507 98.9037 151.559C98.8011 151.61 98.689 151.64 98.5743 151.647C98.4596 151.653 98.3448 151.636 98.2371 151.596C98.0179 151.5 97.8428 151.326 97.7472 151.106C97.6515 150.887 97.6422 150.64 97.7211 150.414Z" fill="#783736"/>
<path d="M103.799 142.935L102.215 142.167C102.254 142.06 102.315 141.962 102.394 141.88C102.473 141.798 102.569 141.734 102.675 141.691C102.781 141.649 102.895 141.629 103.009 141.633C103.123 141.638 103.235 141.667 103.337 141.717C103.551 141.827 103.717 142.013 103.802 142.238C103.887 142.463 103.886 142.711 103.799 142.935Z" fill="#263238"/>
<path d="M102.761 145.139C102.77 145.237 102.758 145.336 102.727 145.429C102.696 145.522 102.645 145.608 102.579 145.681C102.512 145.754 102.432 145.812 102.342 145.852C102.252 145.891 102.154 145.912 102.056 145.912C101.957 145.912 101.86 145.891 101.77 145.852C101.68 145.812 101.599 145.754 101.533 145.681C101.466 145.608 101.416 145.522 101.384 145.429C101.353 145.336 101.342 145.237 101.351 145.139C101.347 145.043 101.362 144.947 101.395 144.857C101.428 144.767 101.479 144.685 101.544 144.614C101.609 144.544 101.688 144.487 101.775 144.448C101.862 144.408 101.957 144.386 102.053 144.383C102.246 144.391 102.429 144.474 102.562 144.616C102.694 144.757 102.766 144.945 102.761 145.139Z" fill="#263238"/>
<path d="M98.7734 144.594L98.8514 149.04L101.377 148.464L98.7734 144.594Z" fill="#783736"/>
<path d="M95.6836 143.305C95.2174 143.305 94.7702 143.491 94.4405 143.82C94.1109 144.15 93.9256 144.597 93.9256 145.063C93.9256 145.53 94.1109 145.977 94.4405 146.306C94.7702 146.636 95.2174 146.821 95.6836 146.821H96.0016C96.4679 146.821 96.915 146.636 97.2447 146.306C97.5744 145.977 97.7596 145.53 97.7596 145.063C97.7596 144.597 97.5744 144.15 97.2447 143.82C96.915 143.491 96.4679 143.305 96.0016 143.305H95.6836ZM93.6016 145.063C93.5968 144.507 93.8127 143.972 94.2018 143.575C94.591 143.178 95.1217 142.952 95.6776 142.945H96.0016C96.5113 143.012 96.9792 143.262 97.3182 143.648C97.6572 144.035 97.8441 144.531 97.8441 145.045C97.8441 145.559 97.6572 146.056 97.3182 146.442C96.9792 146.829 96.5113 147.078 96.0016 147.145H95.6836C95.1324 147.142 94.6047 146.922 94.2149 146.532C93.8252 146.142 93.6048 145.615 93.6016 145.063Z" fill="#263238"/>
<path d="M101.998 143.305C101.532 143.305 101.085 143.491 100.755 143.82C100.425 144.15 100.24 144.597 100.24 145.063C100.24 145.53 100.425 145.977 100.755 146.306C101.085 146.636 101.532 146.821 101.998 146.821H102.316C102.782 146.821 103.229 146.636 103.559 146.306C103.889 145.977 104.074 145.53 104.074 145.063C104.074 144.597 103.889 144.15 103.559 143.82C103.229 143.491 102.782 143.305 102.316 143.305H101.998ZM99.922 145.063C99.9172 144.507 100.133 143.972 100.522 143.575C100.911 143.178 101.442 142.952 101.998 142.945H102.316C102.826 143.012 103.294 143.262 103.633 143.648C103.972 144.035 104.158 144.531 104.158 145.045C104.158 145.559 103.972 146.056 103.633 146.442C103.294 146.829 102.826 147.078 102.316 147.145H101.998C101.45 147.137 100.927 146.915 100.541 146.526C100.155 146.136 99.937 145.611 99.934 145.063H99.922Z" fill="#263238"/>
<path d="M98.05 144.644C98.1757 144.47 98.3405 144.327 98.5312 144.228C98.7219 144.129 98.9332 144.076 99.148 144.074C99.3252 144.055 99.5044 144.079 99.6705 144.143C99.8365 144.208 99.9845 144.312 100.102 144.446L100.384 144.23C100.234 144.047 100.041 143.904 99.8219 143.815C99.6028 143.726 99.365 143.693 99.13 143.72C98.8576 143.723 98.5898 143.791 98.3496 143.92C98.1093 144.048 97.9036 144.233 97.75 144.458L98.05 144.644Z" fill="#263238"/>
<path d="M93.7908 144.625H90.2148V144.979H93.7908V144.625Z" fill="#263238"/>
</svg>
