<?xml version="1.0" encoding="UTF-8"?>
<svg id="Layer_2" data-name="Layer 2" xmlns="http://www.w3.org/2000/svg" viewBox="0 0 140.95 140.79">
  <defs>
    <style>
      .cls-1 {
        fill: #ffa938;
      }
    </style>
  </defs>
  <g id="Layer_1-2" data-name="Layer 1">
    <g>
      <polygon points="104.94 27.67 90.18 27.67 90.18 14.05 54.48 14.05 54.48 0 24.41 0 24.41 14.05 9.93 14.05 9.93 27.67 0 27.67 0 42.14 9.93 42.14 9.93 71.42 31.31 71.42 31.31 42.14 104.94 42.14 104.94 27.67"/>
      <path class="cls-1" d="M128.15,59.26v-12.11H36.03v40.22h8.7v13.12h-13.43v-24.59h-14v64.89h87.63v-14.16h23.22v-11.38h12.8v-55.99h-12.8ZM93.31,131.22H30.04v-14.8h4.59v9.83h54.01V58.06h4.68v73.16ZM127.59,114.85h-22.65v-55.59h22.65v55.59Z"/>
    </g>
  </g>
</svg>